<svg xmlns="http://www.w3.org/2000/svg" xml:space="preserve" viewBox="0 0 25.4 25.4"><rect width="25.391" height="25.372" x=".004" y=".014" fill="#0ff" ry="4.518"/><g fill="none" stroke="#fff" stroke-linecap="round" stroke-linejoin="round" stroke-width="2" transform="matrix(.94498 0 0 .94498 1.36 1.36)"><path stroke="none" d="M0 0h24v24H0Z"/><path d="M9 5H7a2 2 0 0 0-2 2v12a2 2 0 0 0 2 2h10a2 2 0 0 0 2-2V7a2 2 0 0 0-2-2h-2"/><rect width="6" height="4" x="9" y="3" rx="2"/><path d="M9 12h.01M13 12h2M9 16h.01M13 16h2"/></g></svg>